# File produced by Open Asset Import Library (http://www.assimp.sf.net)
# (assimp v3.1.202510665)

mtllib WoodenSupportBeamsTextured.mtl

# vertex positions
v -221.727966 297.052124 -100.000046
v -257.275238 297.052124 -100.000046
v -257.275238 297.052155 -57.547035
v -221.727966 297.052155 -57.547035
v -221.727966 264.069092 -57.547028
v -257.275238 264.069092 -57.547028
v -257.275238 264.069031 -100.000046
v -257.275238 -100.000015 -99.999985
v -221.727966 -100.000015 -99.999985
v -221.727966 -100.000015 -57.546970
v -257.275238 -100.000015 -57.546970
v -221.727966 222.789246 -100.000038
v -221.727966 222.789246 -57.547024
v -160.760361 264.205048 -57.547028
v -160.760361 264.205017 -100.000046
v -221.727966 264.069031 -100.000046
v -257.275238 222.789246 -100.000038
v -257.275238 222.789246 -57.547024
v -221.727966 181.509430 -100.000031
v -129.108810 264.313843 -100.000046
v -221.727966 181.509430 -57.547016
v -257.275238 181.509430 -57.547016
v -257.275238 181.509430 -100.000031
v -129.108810 264.313873 -57.547028
v -0.050594 297.052155 -57.547035
v -0.050606 297.052124 -100.000046
v -0.050594 264.069092 -57.547028
v -0.050606 264.069031 -100.000046
v 221.727966 297.052124 -100.000046
v 221.727966 297.052155 -57.547035
v 257.275238 297.052155 -57.547035
v 257.275238 297.052124 -100.000046
v 221.727966 264.069092 -57.547028
v 257.275238 264.069092 -57.547028
v 257.275238 264.069031 -100.000046
v 257.275238 -100.000015 -99.999985
v 257.275238 -100.000015 -57.546970
v 221.727966 -100.000015 -57.546970
v 221.727966 -100.000015 -99.999985
v 221.727966 222.789246 -100.000038
v 160.760361 264.205017 -100.000046
v 160.760361 264.205048 -57.547028
v 221.727966 222.789246 -57.547024
v 221.727966 264.069031 -100.000046
v 257.275238 222.789246 -100.000038
v 257.275238 222.789246 -57.547024
v 221.727966 181.509430 -100.000031
v 129.108810 264.313843 -100.000046
v 257.275238 181.509430 -57.547016
v 221.727966 181.509430 -57.547016
v 257.275238 181.509430 -100.000031
v 129.108810 264.313873 -57.547028
v 0.050606 297.052124 -100.000046
v 0.050594 297.052155 -57.547035
v 0.050594 264.069092 -57.547028
v 0.050606 264.069031 -100.000046

# UV coordinates
vt 0.623613 0.571005
vt 0.669739 0.571005
vt 0.669739 0.626092
vt 0.623613 0.626092
vt 0.434134 0.101636
vt 0.391335 0.101636
vt 0.391335 0.055510
vt 0.434134 0.055510
vt 0.335966 0.042940
vt 0.335966 0.000141
vt 0.391053 0.000141
vt 0.391053 0.042940
vt 0.437461 0.444652
vt 0.391335 0.444652
vt 0.391335 0.389566
vt 0.437461 0.389566
vt 0.434416 0.109075
vt 0.489503 0.109075
vt 0.489503 0.204713
vt 0.434416 0.204713
vt 0.334060 0.472711
vt 0.333913 0.515509
vt 0.287787 0.515351
vt 0.287934 0.472552
vt 0.334244 0.419147
vt 0.288118 0.418988
vt 0.434416 0.055510
vt 0.489503 0.055510
vt 0.335966 0.096504
vt 0.391053 0.096504
vt 0.288118 0.581012
vt 0.287934 0.527448
vt 0.334060 0.527290
vt 0.334244 0.580854
vt 0.288302 0.365424
vt 0.208822 0.472457
vt 0.167751 0.472457
vt 0.289558 0.999859
vt 0.288302 0.634576
vt 0.334428 0.634418
vt 0.335683 0.999700
vt 0.335683 0.000300
vt 0.334428 0.365583
vt 0.289558 0.000141
vt 0.006542 0.527543
vt 0.006542 0.472457
vt 0.167751 0.527543
vt 0.335966 0.515354
vt 0.335966 0.150069
vt 0.391053 0.150069
vt 0.391053 0.515354
vt 0.208822 0.527543
vt 0.701251 0.570723
vt 0.335966 0.570723
vt 0.335966 0.515636
vt 0.701251 0.515636
vt 0.335966 0.626092
vt 0.335966 0.571005
vt 0.434134 0.389283
vt 0.391335 0.389283
vt 0.000141 0.514362
vt 0.000288 0.471563
vt 0.678982 0.000141
vt 0.678982 0.055228
vt 0.391335 0.055228
vt 0.391335 0.000141

# vertex normals
vn 0.000000 1.000000 -0.000000
vn 0.000000 0.000000 1.000000
vn -1.000000 0.000000 0.000000
vn 0.000000 -1.000000 0.000000
vn -0.561919 0.827193 -0.000000
vn 0.000000 -0.000000 -1.000000
vn 1.000000 0.000000 0.000000
vn 0.666503 -0.745503 0.000000
vn -0.003438 0.999994 -0.000000
vn 0.000000 0.000000 1.000000
vn 0.561919 0.827193 -0.000000
vn -0.666503 -0.745503 0.000000
vn 0.003438 0.999994 -0.000000

# Mesh
g Cube
usemtl Material
f 4/4/1 1/1/1 2/2/1
f 2/2/1 3/3/1 4/4/1
f 6/8/2 5/5/2 4/6/2
f 4/6/2 3/7/2 6/8/2
f 7/12/3 6/9/3 3/10/3
f 3/10/3 2/11/3 7/12/3
f 11/16/4 8/13/4 9/14/4
f 9/14/4 10/15/4 11/16/4
f 15/20/5 12/17/5 13/18/5
f 13/18/5 14/19/5 15/20/5
f 16/24/6 7/21/6 2/22/6
f 2/22/6 1/23/6 16/24/6
f 12/26/6 17/25/6 7/21/6
f 7/21/6 16/24/6 12/26/6
f 13/18/7 12/17/7 16/27/7
f 16/27/7 5/28/7 13/18/7
f 17/30/3 18/29/3 6/9/3
f 6/9/3 7/12/3 17/30/3
f 18/34/2 13/31/2 5/32/2
f 5/32/2 6/33/2 18/34/2
f 20/37/6 19/35/6 12/26/6
f 12/26/6 15/36/6 20/37/6
f 11/41/2 10/38/2 21/39/2
f 21/39/2 22/40/2 11/41/2
f 9/44/6 8/42/6 23/43/6
f 23/43/6 19/35/6 9/44/6
f 24/47/8 21/45/8 19/46/8
f 19/46/8 20/37/8 24/47/8
f 8/51/3 11/48/3 22/49/3
f 22/49/3 23/50/3 8/51/3
f 19/35/6 23/43/6 17/25/6
f 17/25/6 12/26/6 19/35/6
f 24/47/9 20/37/9 15/36/9
f 15/36/9 14/52/9 24/47/9
f 22/40/2 21/39/2 13/31/2
f 13/31/2 18/34/2 22/40/2
f 23/50/3 22/49/3 18/29/3
f 18/29/3 17/30/3 23/50/3
f 14/52/10 13/31/2 21/39/2
f 21/39/2 24/47/10 14/52/10
f 10/56/7 9/53/7 19/54/7
f 19/54/7 21/55/7 10/56/7
f 26/58/1 1/1/1 4/4/1
f 4/4/1 25/57/1 26/58/1
f 25/60/2 4/6/2 5/5/2
f 5/5/2 27/59/2 25/60/2
f 28/62/6 16/24/6 1/23/6
f 1/23/6 26/61/6 28/62/6
f 27/66/4 5/63/4 16/64/4
f 16/64/4 28/65/4 27/66/4
f 32/2/1 29/1/1 30/4/1
f 30/4/1 31/3/1 32/2/1
f 30/6/2 33/5/2 34/8/2
f 34/8/2 31/7/2 30/6/2
f 31/10/7 34/9/7 35/12/7
f 35/12/7 32/11/7 31/10/7
f 39/14/4 36/13/4 37/16/4
f 37/16/4 38/15/4 39/14/4
f 43/18/11 40/17/11 41/20/11
f 41/20/11 42/19/11 43/18/11
f 32/22/6 35/21/6 44/24/6
f 44/24/6 29/23/6 32/22/6
f 35/21/6 45/25/6 40/26/6
f 40/26/6 44/24/6 35/21/6
f 44/27/3 40/17/3 43/18/3
f 43/18/3 33/28/3 44/27/3
f 34/9/7 46/29/7 45/30/7
f 45/30/7 35/12/7 34/9/7
f 33/32/2 43/31/2 46/34/2
f 46/34/2 34/33/2 33/32/2
f 40/26/6 47/35/6 48/37/6
f 48/37/6 41/36/6 40/26/6
f 50/39/2 38/38/2 37/41/2
f 37/41/2 49/40/2 50/39/2
f 51/43/6 36/42/6 39/44/6
f 39/44/6 47/35/6 51/43/6
f 47/46/12 50/45/12 52/47/12
f 52/47/12 48/37/12 47/46/12
f 49/49/7 37/48/7 36/51/7
f 36/51/7 51/50/7 49/49/7
f 45/25/6 51/43/6 47/35/6
f 47/35/6 40/26/6 45/25/6
f 41/36/13 48/37/13 52/47/13
f 52/47/13 42/52/13 41/36/13
f 43/31/2 50/39/2 49/40/2
f 49/40/2 46/34/2 43/31/2
f 46/29/7 49/49/7 51/50/7
f 51/50/7 45/30/7 46/29/7
f 50/39/2 43/31/2 42/52/2
f 42/52/2 52/47/2 50/39/2
f 47/54/3 39/53/3 38/56/3
f 38/56/3 50/55/3 47/54/3
f 30/4/1 29/1/1 53/58/1
f 53/58/1 54/57/1 30/4/1
f 33/5/2 30/6/2 54/60/2
f 54/60/2 55/59/2 33/5/2
f 29/23/6 44/24/6 56/62/6
f 56/62/6 53/61/6 29/23/6
f 44/64/4 33/63/4 55/66/4
f 55/66/4 56/65/4 44/64/4
